<svg width="78" height="58" viewBox="0 0 78 58" fill="none" xmlns="http://www.w3.org/2000/svg">
<path fill-rule="evenodd" clip-rule="evenodd" d="M78 34.8983H67.3656V58H40.1183V45.8687C40.1183 45.3592 39.7691 44.9387 39.3027 44.9387H38.0181V39.6934L56.1312 35.9646C56.4503 35.8994 56.7012 35.6417 56.7831 35.3189V26.635H53.1828V23.697C53.1828 23.1905 52.8037 22.7551 52.3373 22.7551H22.0188C21.5497 22.7551 21.1078 23.1905 21.1078 23.697V31.7915C21.1078 32.3009 21.5497 32.7066 22.0188 32.7066H52.3373C52.8037 32.7066 53.1828 32.3009 53.1828 31.7915V28.2344H55.1193V34.2941L36.998 38.0259C36.5998 38.1089 36.2998 38.488 36.2998 38.9322V44.9387H35.0561C34.5842 44.9387 34.1997 45.3592 34.1997 45.8687V58H10.5526V34.8983H0L39 0L60.3288 19.0915V10.8193H67.3656V25.4148L78 34.8983ZM22.2261 45.4422H17.9985V50.0625H22.2261V45.4422ZM23.2898 44.2575H27.5719V39.6371H23.2898V44.2575ZM23.2898 50.0625H27.5719V45.4422H23.2898V50.0625ZM17.9985 39.6371V44.2575H22.2261V39.6371H17.9985Z" fill="url(#paint0_linear_5_138)"/>
<defs>
<linearGradient id="paint0_linear_5_138" x1="-19203.6" y1="116267" x2="50295.2" y2="-69966.4" gradientUnits="userSpaceOnUse">
<stop stop-color="#7286D3"/>
<stop offset="1" stop-color="#8EA7E9"/>
</linearGradient>
</defs>
</svg>
