<svg width="19" height="18" viewBox="0 0 19 18" fill="none" xmlns="http://www.w3.org/2000/svg">
<path d="M9.5 0C4.5374 0 0.5 4.0374 0.5 9V12.7287C0.5 13.6503 1.3073 14.4 2.3 14.4H3.2C3.43869 14.4 3.66761 14.3052 3.8364 14.1364C4.00518 13.9676 4.1 13.7387 4.1 13.5V8.8713C4.1 8.63261 4.00518 8.40369 3.8364 8.2349C3.66761 8.06612 3.43869 7.9713 3.2 7.9713H2.3828C2.8832 4.4883 5.8802 1.8 9.5 1.8C13.1198 1.8 16.1168 4.4883 16.6172 7.9713H15.8C15.5613 7.9713 15.3324 8.06612 15.1636 8.2349C14.9948 8.40369 14.9 8.63261 14.9 8.8713V14.4C14.9 15.3927 14.0927 16.2 13.1 16.2H11.3V15.3H7.7V18H13.1C15.0854 18 16.7 16.3854 16.7 14.4C17.6927 14.4 18.5 13.6503 18.5 12.7287V9C18.5 4.0374 14.4626 0 9.5 0Z" fill="#B2B2B2"/>
</svg>
