<svg width="12" height="12" viewBox="0 0 12 12" fill="none" xmlns="http://www.w3.org/2000/svg">
<path d="M6.5 1.25C6.5 1.05109 6.42098 0.860322 6.28033 0.71967C6.13968 0.579018 5.94891 0.5 5.75 0.5C5.55109 0.5 5.36032 0.579018 5.21967 0.71967C5.07902 0.860322 5 1.05109 5 1.25V5.5H0.75C0.551088 5.5 0.360322 5.57902 0.21967 5.71967C0.0790175 5.86032 0 6.05109 0 6.25C0 6.44891 0.0790175 6.63968 0.21967 6.78033C0.360322 6.92098 0.551088 7 0.75 7H5V11.25C5 11.4489 5.07902 11.6397 5.21967 11.7803C5.36032 11.921 5.55109 12 5.75 12C5.94891 12 6.13968 11.921 6.28033 11.7803C6.42098 11.6397 6.5 11.4489 6.5 11.25V7H10.75C10.9489 7 11.1397 6.92098 11.2803 6.78033C11.421 6.63968 11.5 6.44891 11.5 6.25C11.5 6.05109 11.421 5.86032 11.2803 5.71967C11.1397 5.57902 10.9489 5.5 10.75 5.5H6.5V1.25Z" fill="white"/>
</svg>
